<svg width="80" height="80" viewBox="0 0 80 80" fill="none" xmlns="http://www.w3.org/2000/svg">
<path d="M73.3333 76C72.9831 76 72.6364 75.931 72.3128 75.797C71.9893 75.663 71.6953 75.4666 71.4477 75.2189C71.2001 74.9713 71.0037 74.6774 70.8697 74.3538C70.7356 74.0303 70.6667 73.6835 70.6667 73.3333V6.66667C70.6667 5.95942 70.9476 5.28115 71.4477 4.78105C71.9478 4.28095 72.6261 4 73.3333 4C74.0406 4 74.7188 4.28095 75.2189 4.78105C75.719 5.28115 76 5.95942 76 6.66667V73.3333C76 74.0406 75.719 74.7188 75.2189 75.2189C74.7188 75.719 74.0406 76 73.3333 76ZM6.66667 76C5.95942 76 5.28115 75.719 4.78105 75.2189C4.28095 74.7188 4 74.0406 4 73.3333V6.66667C4 5.95942 4.28095 5.28115 4.78105 4.78105C5.28115 4.28095 5.95942 4 6.66667 4C7.37391 4 8.05219 4.28095 8.55228 4.78105C9.05238 5.28115 9.33333 5.95942 9.33333 6.66667V73.3333C9.33333 73.6835 9.26436 74.0303 9.13035 74.3538C8.99633 74.6774 8.79991 74.9713 8.55228 75.2189C8.30466 75.4666 8.01069 75.663 7.68716 75.797C7.36362 75.931 7.01686 76 6.66667 76Z" fill="white"/>
<path d="M59.9999 68C57.8199 68 55.9106 67.1947 54.3239 65.6093C53.954 65.2426 53.6163 64.8447 53.3146 64.42C53.0119 64.836 52.6613 65.236 52.2599 65.624C50.7493 67.1907 48.8559 68 46.6666 68C44.4866 68 42.5773 67.1947 40.9906 65.6093C39.7719 64.392 39.0279 62.9573 38.7693 61.3333H6.66659C6.31296 61.3333 5.97382 61.1929 5.72378 60.9428C5.47373 60.6928 5.33325 60.3536 5.33325 60C5.33325 59.6464 5.47373 59.3072 5.72378 59.0572C5.97382 58.8071 6.31296 58.6667 6.66659 58.6667H38.7693C39.0266 57.0413 39.7653 55.5907 40.9746 54.34C42.5892 52.7773 44.4933 52 46.6666 52C48.8479 52 50.7359 52.7827 52.2759 54.324C52.6706 54.7187 53.0173 55.1267 53.3146 55.5467C53.5999 55.1307 53.9319 54.7293 54.3079 54.34C55.9226 52.7773 57.8266 52 59.9999 52C62.1813 52 64.0692 52.7827 65.6092 54.324C66.8626 55.5773 67.6293 57.0347 67.8946 58.6667H73.3333C73.6869 58.6667 74.026 58.8071 74.2761 59.0572C74.5261 59.3072 74.6666 59.6464 74.6666 60C74.6666 60.3536 74.5261 60.6928 74.2761 60.9428C74.026 61.1929 73.6869 61.3333 73.3333 61.3333H67.8946C67.6279 62.9653 66.8573 64.404 65.5933 65.6253C64.0826 67.1907 62.1893 68 59.9999 68ZM54.6666 60.4573C54.6826 61.6347 55.1879 62.704 56.2093 63.724C57.2933 64.8067 58.5319 65.3333 59.9999 65.3333C61.4586 65.3333 62.6719 64.812 63.7079 63.74C64.8119 62.672 65.3333 61.4587 65.3333 60C65.3333 58.532 64.8066 57.2933 63.7239 56.2093C62.6866 55.172 61.4693 54.6667 59.9999 54.6667C58.5226 54.6667 57.2773 55.176 56.1946 56.2253C55.1959 57.2573 54.6853 58.3747 54.6666 59.6093V60.4573ZM41.3333 60C41.3333 61.468 41.8386 62.6867 42.8759 63.724C43.9599 64.8067 45.1986 65.3333 46.6666 65.3333C48.1253 65.3333 49.3386 64.812 50.3746 63.74C51.4599 62.6907 51.9813 61.6267 51.9999 60.456V59.6093C51.9813 58.3853 51.4559 57.2733 50.3906 56.2093C49.3533 55.172 48.1359 54.6667 46.6666 54.6667C45.1893 54.6667 43.9439 55.176 42.8613 56.2253C41.8439 57.2787 41.3333 58.524 41.3333 60ZM26.6666 48C24.4866 48 22.5773 47.1947 20.9906 45.6093C19.7719 44.392 19.0279 42.9573 18.7693 41.3333H6.66659C6.31296 41.3333 5.97382 41.1929 5.72378 40.9428C5.47373 40.6928 5.33325 40.3536 5.33325 40C5.33325 39.6464 5.47373 39.3072 5.72378 39.0572C5.97382 38.8071 6.31296 38.6667 6.66659 38.6667H18.7693C19.0266 37.0413 19.7653 35.5907 20.9746 34.34C22.5906 32.7773 24.4946 32 26.6666 32C28.8479 32 30.7346 32.7813 32.2773 34.324C33.5306 35.5773 34.2959 37.0347 34.5613 38.6667H73.3333C73.6869 38.6667 74.026 38.8071 74.2761 39.0572C74.5261 39.3072 74.6666 39.6464 74.6666 40C74.6666 40.3536 74.5261 40.6928 74.2761 40.9428C74.026 41.1929 73.6869 41.3333 73.3333 41.3333H34.5599C34.2933 42.9653 33.5226 44.404 32.2599 45.6253C30.7479 47.1907 28.8559 48 26.6666 48ZM21.3333 40C21.3333 41.468 21.8373 42.6867 22.8759 43.724C23.9599 44.8067 25.1986 45.3333 26.6666 45.3333C28.1253 45.3333 29.3373 44.812 30.3746 43.74C31.4786 42.672 31.9999 41.4587 31.9999 40C31.9999 38.532 31.4733 37.2933 30.3906 36.2093C29.3533 35.1707 28.1346 34.6667 26.6666 34.6667C25.1906 34.6667 23.9439 35.176 22.8613 36.2253C21.8426 37.2773 21.3333 38.524 21.3333 40ZM46.6666 21.3333C44.4866 21.3333 42.5773 20.5293 40.9906 18.9427C40.621 18.5756 40.2833 18.1777 39.9813 17.7533C39.6799 18.168 39.3279 18.5693 38.9266 18.9587C37.4146 20.524 35.5226 21.3333 33.3333 21.3333C31.1533 21.3333 29.2439 20.5293 27.6573 18.9427C27.2876 18.5756 26.95 18.1777 26.6479 17.7533C26.3466 18.168 25.9946 18.5693 25.5933 18.9587C24.0813 20.524 22.1893 21.3333 19.9999 21.3333C17.8199 21.3333 15.9106 20.5293 14.3239 18.9427C13.1053 17.724 12.3613 16.2907 12.1026 14.6667H6.66659C6.31302 14.6666 5.97396 14.5261 5.72399 14.276C5.47401 14.026 5.33358 13.6869 5.33358 13.3333C5.33358 12.9798 5.47401 12.6407 5.72399 12.3906C5.97396 12.1406 6.31302 12.0001 6.66659 12H12.1026C12.3599 10.3747 13.0986 8.92399 14.3079 7.67333C15.9239 6.11066 17.8279 5.33333 19.9999 5.33333C22.1813 5.33333 24.0679 6.11466 25.6106 7.65733C26.0053 8.05199 26.3519 8.45999 26.6493 8.87999C26.9346 8.46533 27.2653 8.06266 27.6426 7.67333C29.2573 6.11066 31.1613 5.33333 33.3333 5.33333C35.5146 5.33333 37.4013 6.11466 38.9439 7.65733C39.3372 8.05199 39.6839 8.45999 39.9813 8.87999C40.2666 8.46399 40.5986 8.06266 40.9759 7.67199C42.5893 6.11066 44.4946 5.33333 46.6666 5.33333C48.8479 5.33333 50.7346 6.11466 52.2759 7.65733C53.5293 8.91066 54.2959 10.368 54.5613 12H73.3333C73.5084 12 73.6818 12.0344 73.8436 12.1014C74.0054 12.1684 74.1524 12.2666 74.2763 12.3904C74.4001 12.5142 74.4984 12.6612 74.5654 12.823C74.6324 12.9848 74.6669 13.1582 74.6669 13.3333C74.6669 13.5085 74.6324 13.6819 74.5654 13.8436C74.4984 14.0054 74.4001 14.1524 74.2763 14.2763C74.1524 14.4001 74.0054 14.4983 73.8436 14.5653C73.6818 14.6322 73.5084 14.6667 73.3333 14.6667H54.5613C54.2946 16.2987 53.5239 17.7373 52.2599 18.9587C50.7493 20.524 48.8559 21.3333 46.6666 21.3333ZM41.3333 13.792C41.3506 14.968 41.8559 16.036 42.8759 17.0573C43.9599 18.14 45.1986 18.6667 46.6666 18.6667C48.1253 18.6667 49.3386 18.1453 50.3746 17.0733C51.4786 16.004 51.9999 14.792 51.9999 13.3333C51.9999 11.8653 51.4733 10.6267 50.3906 9.54266C49.3533 8.50399 48.1346 7.99999 46.6666 7.99999C45.1906 7.99999 43.9453 8.50933 42.8613 9.55866C41.8613 10.592 41.3519 11.7093 41.3333 12.9427V13.792ZM27.9999 13.7907C28.0173 14.968 28.5226 16.036 29.5426 17.0573C30.6266 18.14 31.8653 18.6667 33.3333 18.6667C34.7919 18.6667 36.0039 18.1453 37.0413 17.0733C38.1253 16.0227 38.6479 14.9587 38.6666 13.7907V12.944C38.6479 11.72 38.1213 10.608 37.0573 9.54399C36.0199 8.50399 34.8013 7.99999 33.3333 7.99999C31.8573 7.99999 30.6106 8.50933 29.5279 9.55866C28.5279 10.5933 28.0173 11.7107 27.9999 12.9427V13.7907ZM14.6666 13.3333C14.6666 14.8013 15.1706 16.02 16.2093 17.056C17.2933 18.14 18.5319 18.6667 19.9999 18.6667C21.4586 18.6667 22.6706 18.1453 23.7079 17.0733C24.7919 16.0227 25.3146 14.9587 25.3333 13.7907V12.944C25.3146 11.72 24.7879 10.608 23.7239 9.54399C22.6866 8.50399 21.4679 7.99999 19.9999 7.99999C18.5239 7.99999 17.2773 8.50933 16.1946 9.55866C15.1759 10.6107 14.6666 11.8573 14.6666 13.3333Z" fill="white"/>
</svg>

